<?xml version="1.0"?><svg xmlns="http://www.w3.org/2000/svg" xmlns:xlink="http://www.w3.org/1999/xlink" width="1804" height="872" viewBox="0 0 1804 872"><path fill="#F2EEE6" d="M384.591 187.111C398.704 186.105 419.155 187.022 433.313 187.664C488.604 190.409 543.578 197.678 597.683 209.398C610.995 212.209 624.251 215.274 637.446 218.591C646.208 220.787 657.386 224.204 666.147 225.1C665.615 247.993 666.022 272.435 665.99 295.471L665.968 419.011C622.325 408.649 583.697 401.73 539.529 395.542C472.349 386.13 406.988 381.311 340.438 399.13C297.215 410.703 245.025 438.818 257.767 492.024C269.909 537.413 340.397 551.566 380.018 552.216C408.816 553.116 436.947 551.691 464.766 543.431C489.273 536.153 502.305 531.768 515.111 509.014C475.076 508.45 421.65 507.646 382.242 509.407L382.106 429.869C417.608 431.166 458.522 430.354 494.387 430.319L667.569 430.093C666.53 476.372 667.21 525.997 667.414 572.492L667.546 760.005C644.957 759.822 622.367 759.861 599.778 760.125L600.045 639.394C600.149 623.516 600.913 607.719 600.819 591.878C587.109 631.191 578.381 659.843 548.677 692.584C501.374 743.607 436.673 766.105 369.584 770.253C203.107 780.545 58.9763 676.906 51.7387 503.467C48.5369 426.739 61.3919 355.146 115.776 295.353C186.767 217.301 282.396 192.236 384.591 187.111Z"></path><path fill="#F2EEE6" d="M1570.47 210.939C1571.44 213.864 1569.76 242.345 1569.5 247.145C1567.62 282.144 1567.81 316.995 1566.76 352.021C1598.03 350.772 1634.68 351.589 1666.4 351.551C1665.02 365.326 1665.63 395.792 1665.74 410.978C1665.94 437.302 1664.89 468.447 1666.42 494.262C1633.69 493.724 1599.86 494.126 1567.03 494.045C1567.4 516.542 1565.98 554.282 1573.1 574.391C1586.83 613.152 1647.23 599.423 1674.51 588.373C1674.32 641.872 1675.64 700.489 1677.11 754.098C1623.68 768.035 1593.39 774.04 1536.36 767.755C1500.38 764.089 1457.86 748.427 1432.78 721.999C1392.96 680.043 1392.36 614.699 1393.09 560.295C1393.39 538.217 1393.87 516.142 1394.55 494.072C1367.31 494.501 1340.03 493.771 1312.68 494.45C1314.31 449.641 1312.96 396.732 1312.65 351.5C1339.03 352.444 1369.94 351.645 1396.53 351.483C1397.23 304.688 1401.19 257.523 1401.55 210.955C1408.42 211.134 1415.53 211.301 1422.39 211.23C1471.6 210.72 1521.31 212.247 1570.47 210.939Z"></path><path fill="#F2EEE6" d="M1008.3 340.362C1034.05 338.645 1053.16 345.633 1075.56 356.685L1073.1 535.121C1072.74 550.243 1073.23 566.931 1072.47 581.763L1071.15 582.555C1067.7 581.503 1053.58 565.535 1049.12 561.47C1010.76 526.514 939.839 525.102 905.359 566.448C880.568 596.175 884.705 633.626 887.582 669.796C889.966 699.78 894.114 729.79 897.119 759.978C875.69 758.906 846.722 759.714 824.837 759.722C786.265 759.589 747.693 759.714 709.123 760.098C708.991 747.169 709.765 732.543 710.005 719.4C711.15 656.399 711.289 590.159 709.942 527.152C708.706 469.284 703.357 409.452 702.372 351.438C725.109 352.244 750.972 351.725 773.969 351.697L891.828 351.366C889.519 370.342 879.866 488.003 883.035 500.692C885.524 501.868 884.438 501.602 887.486 501.356C889.172 498.545 891.365 480.968 892.3 476.517C905.791 412.333 935.358 346.382 1008.3 340.362Z"></path><path fill="#F2EEE6" d="M1103.72 351.499C1167.4 351.842 1231.08 351.849 1294.76 351.522C1293.12 439.155 1292.71 526.806 1293.52 614.451C1294.12 647.642 1295.16 680.957 1295.84 714.13C1295.99 721.601 1298.08 754.161 1297.14 759.255L1295.76 759.967C1233.53 759.605 1167.32 758.768 1105.28 760.093C1106.45 689.853 1111.13 620.203 1110.62 549.332C1110.15 482.876 1104.99 417.335 1103.72 351.499Z"></path><path fill="#F2EEE6" d="M1202.08 154.542C1202.38 154.534 1202.69 154.53 1202.99 154.527C1228.66 154.363 1261.91 165.985 1279.99 184.741C1294.71 199.465 1301.82 218.546 1301.83 239.349C1301.88 297.147 1250.24 327.051 1197.44 326.828C1150.55 326.395 1099.51 298.827 1097.07 247.611C1094.02 183.393 1146.33 158.13 1202.08 154.542Z"></path></svg>